<svg width="14" height="17" fill="none" xmlns="http://www.w3.org/2000/svg"><g clip-path="url(#clip0_1_746)"><path d="M6.923 7.496c.75 0 1.212.225 1.403.691.016.065.08.097.16.097H9.57c.303 0 .144-.37.064-.627a2.004 2.004 0 00-.622-.853 2.517 2.517 0 00-.941-.499c-.702-.176-1.643-.176-2.297 0a2.93 2.93 0 00-.941.499c-.287.21-.494.499-.622.853-.255.627-.255 1.48 0 2.139.128.322.335.611.622.852.255.21.574.354.941.467.654.177 1.595.177 2.297 0 .367-.113.67-.274.941-.467a2.35 2.35 0 00.622-.852c.08-.258.24-.66-.064-.66H8.486c-.08 0-.144.032-.16.097-.191.466-.654.691-1.403.691-1.005 0-1.5-.402-1.5-1.206 0-.82.495-1.222 1.5-1.222zm5.072-.965c-.574-1.303-1.66-2.397-2.951-2.928-1.388-.595-2.903-.627-4.307 0-1.292.531-2.36 1.625-2.935 2.928-.574 1.415-.574 3.007 0 4.359.559 1.302 1.643 2.38 2.935 2.96a5.556 5.556 0 004.307 0c1.324-.564 2.377-1.658 2.95-2.96a5.804 5.804 0 000-4.36zm-2.026 5.275l-.032.033c-.702.546-1.451.9-2.233 1.045-1.547.274-2.791-.21-3.764-1.174-1.468-1.351-1.755-3.844-.112-6.064 0-.016.016-.032.032-.032.718-.547 1.452-.885 2.233-1.03 1.547-.305 2.776.161 3.749 1.142 1.483 1.384 1.754 3.845.127 6.08z" fill="#fff"/><path d="M.33 2.493l12.54 12.645m.272-12.645L.602 15.138" stroke="#fff"/></g><defs><clipPath id="clip0_1_746"><path fill="#fff" d="M0 0h14v17H0z"/></clipPath></defs></svg>