<svg width="199" height="31" fill="none" xmlns="http://www.w3.org/2000/svg"><path fill-rule="evenodd" clip-rule="evenodd" d="M.07 8.908l.07 8.897 8.247 1.684c5.335 1.09 8.012 1.738 7.582 1.835-.366.082-4.107.585-8.314 1.116l-7.648.965v7.586h28.2V13.41l-7.915-1.613c-4.353-.887-8.13-1.689-8.391-1.781-.263-.093 3.03-.607 7.315-1.144 4.286-.537 8.062-1.035 8.392-1.106.587-.129.598-.199.598-3.943V.01H0l.07 8.897zm68.839 6.587v15.496h6.783c6.287 0 6.784-.033 6.776-.448-.004-.247-.469-2.753-1.033-5.569s-1-5.149-.97-5.182c.03-.035 1.641 2.472 3.579 5.568l3.523 5.63h10.339V.01h-6.65c-3.659 0-6.652.062-6.652.136 0 .075.367 2.502.815 5.394.448 2.891.775 5.371.727 5.51-.048.14-1.59-2.258-3.424-5.329L79.386.14 74.147.07 68.91 0v15.495zm31.454-6.597l.07 8.888 8.175 1.667c4.496.916 8.027 1.738 7.848 1.825-.18.088-3.889.604-8.241 1.147l-7.915.988v7.578h28.199v-8.833c0-4.859-.081-8.834-.18-8.834-.413 0-15.424-3.103-15.882-3.283-.306-.121 2.465-.57 7.183-1.167 4.225-.533 7.951-1.03 8.28-1.104.589-.131.599-.203.599-3.946V.01h-28.206l.07 8.887zm30.531 6.603v15.49h10.056l.689-2.88c.379-1.585.829-3.486 1.003-4.225.308-1.319.332-1.344 1.278-1.344h.965l.895 3.904c.493 2.147.949 4.049 1.013 4.225.09.24 1.365.32 5.145.32h5.026V.01h-5.025c-4.994 0-5.026.003-5.162.576-.076.317-.533 2.679-1.015 5.249l-.878 4.672h-1.927l-.325-1.728c-.179-.95-.633-3.312-1.011-5.249l-.686-3.52h-10.041V15.5zm28.465 0v15.49H170V.01h-10.641V15.5zm-123.395-.013c-2.95 8.37-5.364 15.286-5.364 15.366 0 .08 2.782.115 6.182.077l6.181-.068.425-1.793.424-1.792 4.78-.07 4.78-.069.386 1.862.386 1.862 6.165.068 6.165.069-5.323-15.367L55.828.267H41.327l-5.363 15.22zm13.77-1.96c.611 2.013 1.177 3.828 1.26 4.033.123.31-.281.372-2.408.372-1.406 0-2.556-.082-2.556-.183 0-.267 2.167-7.588 2.319-7.835.194-.316.196-.31 1.386 3.613z" fill="#fff"/><path d="M187.969 8l4.826 6.255a23.206 23.206 0 003.103-5.967L199 9.484c-.986 2.476-2.421 4.867-4.303 7.172l4.036 5.199L195.93 24l-3.525-4.622a17.942 17.942 0 01-2.156 2.103c-.727.598-1.713 1.227-2.959 1.89L185 21.042c2.543-1.6 4.418-3.006 5.626-4.216l-5.326-6.82L187.969 8z" fill="#fff"/></svg>