<svg width="14" height="17" viewBox="0 0 14 17" fill="none" xmlns="http://www.w3.org/2000/svg">
<g clip-path="url(#clip0_1_746)">
<path d="M6.92255 7.49566C7.67221 7.49566 8.13477 7.72084 8.32619 8.18734C8.34215 8.25166 8.40595 8.28381 8.4857 8.28381H9.57033C9.87338 8.28381 9.71387 7.91388 9.63412 7.65651C9.49057 7.30268 9.28323 7.01312 9.01205 6.80404C8.75683 6.57886 8.43787 6.41802 8.07097 6.30541C7.36915 6.12851 6.42807 6.12851 5.77409 6.30541C5.40724 6.41802 5.10419 6.59496 4.83301 6.80404C4.54592 7.01312 4.33856 7.30268 4.21096 7.65651C3.95575 8.28381 3.95575 9.13632 4.21096 9.79576C4.33856 10.1175 4.54592 10.407 4.83301 10.6482C5.08823 10.8574 5.40724 11.0021 5.77409 11.1147C6.42807 11.2916 7.36915 11.2916 8.07097 11.1147C8.43787 11.0021 8.74092 10.8413 9.01205 10.6482C9.28323 10.407 9.49057 10.1335 9.63412 9.79576C9.71387 9.53839 9.87338 9.13632 9.57033 9.13632H8.4857C8.40595 9.13632 8.34215 9.16846 8.32619 9.23279C8.13477 9.69924 7.67221 9.92446 6.92255 9.92446C5.91768 9.92446 5.4232 9.52235 5.4232 8.71811C5.4232 7.89778 5.91768 7.49566 6.92255 7.49566ZM11.9948 6.53058C11.4206 5.22776 10.3359 4.13402 9.04397 3.60319C7.65625 3.00809 6.14098 2.9759 4.73734 3.60319C3.44533 4.13402 2.37665 5.22776 1.80243 6.53058C1.22821 7.94606 1.22821 9.53839 1.80243 10.8895C2.36069 12.1924 3.44533 13.27 4.73734 13.8491C6.12502 14.4281 7.64033 14.4281 9.04397 13.8491C10.3679 13.2861 11.4206 12.1924 11.9948 10.8895C12.5531 9.52235 12.569 7.94606 11.9948 6.53058ZM9.96909 11.8063C9.95313 11.8224 9.93717 11.8385 9.93717 11.8385C9.23535 12.3854 8.4857 12.7392 7.70413 12.884C6.15694 13.1575 4.91276 12.6749 3.9398 11.7098C2.47235 10.3587 2.18524 7.86564 3.82814 5.64597C3.82814 5.62988 3.84409 5.61378 3.86004 5.61378C4.57782 5.06691 5.31153 4.72912 6.0931 4.58437C7.64033 4.27877 8.86851 4.74522 9.84151 5.72639C11.3249 7.10964 11.596 9.57058 9.96909 11.8063Z" fill="white"/>
<path d="M0.329956 2.49292L12.8693 15.1376" stroke="white"/>
<path d="M13.1423 2.49292L0.60291 15.1377" stroke="white"/>
</g>
<defs>
<clipPath id="clip0_1_746">
<rect width="14" height="17" fill="white"/>
</clipPath>
</defs>
</svg>
