<svg width="199" height="31" viewBox="0 0 199 31" fill="none" xmlns="http://www.w3.org/2000/svg">
<path fill-rule="evenodd" clip-rule="evenodd" d="M0.069966 8.90792L0.139932 17.805L8.38686 19.4893C13.7221 20.5789 16.3989 21.2267 15.9687 21.3237C15.6029 21.4064 11.862 21.9088 7.65527 22.4398L0.00691704 23.4055V27.1981V30.9908H14.1065H28.2061V22.2006V13.4105L20.2917 11.7977C15.9387 10.9106 12.1629 10.1092 11.9006 10.0167C11.6383 9.9243 14.9304 9.4095 19.2164 8.87254C23.5024 8.33567 27.2781 7.83797 27.6075 7.7665C28.1955 7.63847 28.2061 7.5681 28.2061 3.82356V0.0107357H14.1031H0L0.069966 8.90792ZM68.9086 15.4953V30.9908H75.6924C81.9787 30.9908 82.4757 30.958 82.4684 30.5427C82.4639 30.2961 81.9992 27.7903 81.4354 24.974C80.8715 22.1576 80.4349 19.8254 80.4653 19.7916C80.4958 19.7575 82.1061 22.2636 84.0436 25.3603L87.5669 30.9908H92.7364H97.9059V15.5008V0.0107357H91.2551C87.5972 0.0107357 84.6044 0.0716686 84.6044 0.146219C84.6044 0.220671 84.971 2.64765 85.419 5.53952C85.867 8.4312 86.1939 10.9111 86.1458 11.0504C86.0976 11.1897 84.5567 8.79162 82.722 5.72132L79.3863 0.138764L74.1473 0.0693823L68.9086 0V15.4953ZM100.363 8.89838L100.433 17.7863L108.608 19.4529C113.104 20.3693 116.635 21.1908 116.456 21.2781C116.276 21.3657 112.567 21.8816 108.215 22.4249L100.3 23.4129V27.2017V30.9908H114.399H128.499V22.1576C128.499 17.2994 128.418 13.3245 128.319 13.3245C127.906 13.3245 112.895 10.2206 112.437 10.0406C112.131 9.92002 114.902 9.47013 119.62 8.87432C123.845 8.34074 127.571 7.84413 127.9 7.77038C128.489 7.63877 128.499 7.5671 128.499 3.82356V0.0107357H114.396H100.293L100.363 8.89838ZM130.894 15.5008V30.9908H135.922H140.95L141.639 28.1104C142.018 26.5263 142.468 24.625 142.642 23.8859C142.95 22.5672 142.974 22.5417 143.92 22.5417H144.885L145.78 26.4461C146.273 28.5935 146.729 30.4948 146.793 30.6707C146.883 30.9113 148.158 30.9908 151.938 30.9908H156.964V15.5008V0.0107357H151.939C146.945 0.0107357 146.913 0.0143135 146.777 0.586863C146.701 0.903555 146.244 3.26572 145.762 5.83554L144.884 10.5081H143.92H142.957L142.632 8.77989C142.453 7.82922 141.999 5.46755 141.621 3.53122L140.935 0.0107357H135.914H130.894V15.5008ZM159.359 15.5008V30.9908H164.68H170V15.5008V0.0107357H164.68H159.359V15.5008ZM35.9635 15.4875C33.0137 23.8589 30.6003 30.7739 30.6003 30.8543C30.6003 30.9344 33.382 30.9692 36.7818 30.9313L42.9633 30.8627L43.3879 29.0705L43.8122 27.2782L48.592 27.2086L53.3715 27.139L53.7577 29.0008L54.144 30.8627L60.3093 30.9313L66.4744 31L61.1512 15.6334L55.8282 0.266793H48.5774H41.3267L35.9635 15.4875ZM49.7348 13.528C50.3454 15.5412 50.9114 17.3557 50.9931 17.5605C51.1166 17.8706 50.7127 17.933 48.5858 17.933C47.1801 17.933 46.03 17.8506 46.03 17.75C46.03 17.483 48.1966 10.162 48.3488 9.91486C48.5433 9.59946 48.5453 9.60482 49.7348 13.528Z" fill="white"/>
<path d="M187.969 8L192.795 14.2549C194.1 12.4546 195.133 10.4656 195.898 8.28817L199 9.48362C198.014 11.96 196.579 14.3509 194.697 16.6564L198.733 21.8546L195.93 24L192.405 19.3783C191.701 20.1823 190.983 20.8833 190.249 21.481C189.522 22.0787 188.536 22.7085 187.29 23.3702L185 21.0433C187.543 19.4423 189.418 18.0369 190.626 16.8272L185.3 10.0066L187.969 8Z" fill="white"/>
</svg>
